# xmcd CD database file
#
# Track frame offsets:
#	150
#	18019
#	35213
#	59751
#	82751
#	103844
#	123383
#	151406
#	172311
#	194600
#	208700
#	230257
#
# Disc length: 3360 seconds
#
# Revision: 26
# Processed by: cddbd v1.5.1PL2 Copyright (c) Steve Scherf et al.
# Submitted via: CDex 1.50beta9
#
DISCID=a60d1e0c
DTITLE=I've - verge I've GIRLS COMPILATION.2 DISC1
DYEAR=2000
DGENRE=Pop
TTITLE0=MAKO/bite on the bullet -under mellow style-
TTITLE1=AKI/Grow me
TTITLE2=R.I.E/Take me high
TTITLE3=MELL/Fall in Love
TTITLE4=AKI/Take on your will
TTITLE5=島宮えい子/DREAMER
TTITLE6=島宮えい子/Now and Heaven
TTITLE7=AKI/Pure Heart 〜世界で一番アナタが好き〜
TTITLE8=MAKO/Treating 2U -wrap up style-
TTITLE9=Lia/鳥の詩 -opening-(short ver)
TTITLE10=MAKO/Never forget this time
TTITLE11=MELL&MIKI/空より近い夢
EXTD=YEAR: 2000
EXTT0=
EXTT1=
EXTT2=
EXTT3=
EXTT4=
EXTT5=
EXTT6=
EXTT7=
EXTT8=
EXTT9=
EXTT10=
EXTT11=
PLAYORDER=
